<svg data-v-423bf9ae="" xmlns="http://www.w3.org/2000/svg" viewBox="0 0 370.9581789306512 60" class="font"><!----><!----><!----><g data-v-423bf9ae="" id="8a697631-948f-4faf-b611-af1e596dfb02" fill="black" transform="matrix(4.065643310546875,0,0,4.065643310546875,-4.796187877655029,-10.942298889160156)"><path d="M2.38 13.64L1.18 13.64L1.94 3.63L3.95 3.63L6.43 10.62L6.81 11.93L6.95 11.93L7.32 10.62L9.80 3.63L11.82 3.63L12.58 13.64L11.26 13.64L10.73 5.78L10.67 4.35L10.54 4.35L10.14 5.71L7.44 13.44L6.23 13.44L3.49 5.73L3.08 4.35L2.95 4.35L2.91 5.77L2.38 13.64ZM14.91 13.64L14.91 6.40L16.21 6.40L16.21 13.64L14.91 13.64ZM15.57 4.83L15.57 4.83L15.57 4.83Q15.39 4.83 15.24 4.76L15.24 4.76L15.24 4.76Q15.09 4.70 14.98 4.59L14.98 4.59L14.98 4.59Q14.88 4.48 14.81 4.34L14.81 4.34L14.81 4.34Q14.75 4.19 14.75 4.01L14.75 4.01L14.75 4.01Q14.75 3.83 14.82 3.68L14.82 3.68L14.82 3.68Q14.89 3.52 15.00 3.40L15.00 3.40L15.00 3.40Q15.11 3.29 15.27 3.22L15.27 3.22L15.27 3.22Q15.42 3.16 15.59 3.16L15.59 3.16L15.59 3.16Q15.76 3.16 15.90 3.22L15.90 3.22L15.90 3.22Q16.05 3.29 16.16 3.40L16.16 3.40L16.16 3.40Q16.27 3.52 16.33 3.67L16.33 3.67L16.33 3.67Q16.39 3.83 16.39 4.00L16.39 4.00L16.39 4.00Q16.39 4.18 16.32 4.34L16.32 4.34L16.32 4.34Q16.26 4.49 16.14 4.60L16.14 4.60L16.14 4.60Q16.03 4.70 15.88 4.76L15.88 4.76L15.88 4.76Q15.73 4.83 15.57 4.83ZM23.71 12.29L23.71 13.03L23.71 13.03Q23.28 13.36 22.70 13.57L22.70 13.57L22.70 13.57Q22.11 13.78 21.42 13.78L21.42 13.78L21.42 13.78Q20.69 13.78 20.09 13.52L20.09 13.52L20.09 13.52Q19.49 13.27 19.07 12.81L19.07 12.81L19.07 12.81Q18.64 12.35 18.41 11.71L18.41 11.71L18.41 11.71Q18.18 11.07 18.18 10.32L18.18 10.32L18.18 10.32Q18.18 9.43 18.48 8.69L18.48 8.69L18.48 8.69Q18.79 7.94 19.31 7.40L19.31 7.40L19.31 7.40Q19.83 6.86 20.54 6.56L20.54 6.56L20.54 6.56Q21.25 6.26 22.07 6.26L22.07 6.26L22.07 6.26Q22.26 6.26 22.48 6.28L22.48 6.28L22.48 6.28Q22.70 6.30 22.92 6.34L22.92 6.34L22.92 6.34Q23.14 6.38 23.34 6.44L23.34 6.44L23.34 6.44Q23.55 6.49 23.71 6.58L23.71 6.58L23.43 7.71L23.28 7.78L23.28 7.78Q23.15 7.68 22.97 7.59L22.97 7.59L22.97 7.59Q22.80 7.50 22.60 7.44L22.60 7.44L22.60 7.44Q22.41 7.38 22.20 7.34L22.20 7.34L22.20 7.34Q21.99 7.30 21.79 7.30L21.79 7.30L21.79 7.30Q21.33 7.30 20.93 7.48L20.93 7.48L20.93 7.48Q20.52 7.66 20.21 8.01L20.21 8.01L20.21 8.01Q19.91 8.35 19.73 8.86L19.73 8.86L19.73 8.86Q19.55 9.36 19.55 10.00L19.55 10.00L19.55 10.00Q19.55 10.66 19.74 11.16L19.74 11.16L19.74 11.16Q19.93 11.66 20.25 12.00L20.25 12.00L20.25 12.00Q20.58 12.34 21.03 12.51L21.03 12.51L21.03 12.51Q21.49 12.69 22.01 12.69L22.01 12.69L22.01 12.69Q22.33 12.69 22.77 12.61L22.77 12.61L22.77 12.61Q23.21 12.53 23.71 12.29L23.71 12.29ZM25.73 13.64L25.73 2.69L27.03 2.69L27.03 7.57L27.03 7.57Q27.28 7.36 27.58 7.12L27.58 7.12L27.58 7.12Q27.88 6.89 28.23 6.70L28.23 6.70L28.23 6.70Q28.57 6.51 28.96 6.38L28.96 6.38L28.96 6.38Q29.34 6.26 29.75 6.26L29.75 6.26L29.75 6.26Q30.24 6.26 30.64 6.45L30.64 6.45L30.64 6.45Q31.04 6.64 31.33 6.98L31.33 6.98L31.33 6.98Q31.62 7.31 31.77 7.79L31.77 7.79L31.77 7.79Q31.92 8.26 31.92 8.85L31.92 8.85L31.92 13.64L30.63 13.64L30.63 8.96L30.63 8.96Q30.63 8.56 30.51 8.26L30.51 8.26L30.51 8.26Q30.40 7.96 30.20 7.76L30.20 7.76L30.20 7.76Q30.01 7.55 29.74 7.45L29.74 7.45L29.74 7.45Q29.46 7.36 29.15 7.36L29.15 7.36L29.15 7.36Q28.57 7.36 28.06 7.66L28.06 7.66L28.06 7.66Q27.55 7.96 27.03 8.45L27.03 8.45L27.03 13.64L25.73 13.64ZM38.24 12.56L38.24 12.56L38.24 12.56Q38.07 12.71 37.83 12.92L37.83 12.92L37.83 12.92Q37.58 13.13 37.28 13.32L37.28 13.32L37.28 13.32Q36.98 13.51 36.62 13.64L36.62 13.64L36.62 13.64Q36.26 13.78 35.85 13.78L35.85 13.78L35.85 13.78Q35.49 13.78 35.15 13.65L35.15 13.65L35.15 13.65Q34.80 13.53 34.54 13.28L34.54 13.28L34.54 13.28Q34.27 13.03 34.11 12.66L34.11 12.66L34.11 12.66Q33.95 12.29 33.95 11.81L33.95 11.81L33.95 11.81Q33.95 11.52 34.02 11.22L34.02 11.22L34.02 11.22Q34.09 10.92 34.26 10.64L34.26 10.64L34.26 10.64Q34.43 10.36 34.71 10.12L34.71 10.12L34.71 10.12Q34.99 9.88 35.39 9.70L35.39 9.70L35.39 9.70Q35.80 9.52 36.35 9.41L36.35 9.41L36.35 9.41Q36.91 9.31 37.63 9.31L37.63 9.31L38.24 9.31L38.24 8.68L38.24 8.68Q38.24 8.37 38.13 8.11L38.13 8.11L38.13 8.11Q38.02 7.86 37.83 7.68L37.83 7.68L37.83 7.68Q37.63 7.50 37.36 7.40L37.36 7.40L37.36 7.40Q37.09 7.30 36.76 7.30L36.76 7.30L36.76 7.30Q36.52 7.30 36.24 7.36L36.24 7.36L36.24 7.36Q35.96 7.41 35.69 7.51L35.69 7.51L35.69 7.51Q35.41 7.62 35.16 7.75L35.16 7.75L35.16 7.75Q34.90 7.89 34.71 8.05L34.71 8.05L34.59 7.98L34.32 6.99L34.32 6.99Q34.71 6.77 35.08 6.63L35.08 6.63L35.08 6.63Q35.45 6.49 35.79 6.41L35.79 6.41L35.79 6.41Q36.13 6.32 36.44 6.29L36.44 6.29L36.44 6.29Q36.74 6.26 37.02 6.26L37.02 6.26L37.02 6.26Q38.30 6.26 38.92 6.79L38.92 6.79L38.92 6.79Q39.54 7.32 39.54 8.38L39.54 8.38L39.54 11.95L39.54 11.95Q39.54 12.04 39.55 12.16L39.55 12.16L39.55 12.16Q39.57 12.29 39.62 12.41L39.62 12.41L39.62 12.41Q39.67 12.52 39.77 12.61L39.77 12.61L39.77 12.61Q39.87 12.69 40.04 12.69L40.04 12.69L40.04 12.69Q40.13 12.69 40.29 12.66L40.29 12.66L40.29 12.66Q40.45 12.63 40.61 12.55L40.61 12.55L40.61 13.28L40.61 13.28Q40.28 13.50 39.95 13.64L39.95 13.64L39.95 13.64Q39.61 13.78 39.31 13.78L39.31 13.78L39.31 13.78Q39.03 13.78 38.85 13.67L38.85 13.67L38.85 13.67Q38.66 13.56 38.54 13.38L38.54 13.38L38.54 13.38Q38.42 13.20 38.36 12.98L38.36 12.98L38.36 12.98Q38.29 12.77 38.24 12.56ZM38.24 11.69L38.24 10.10L37.72 10.10L37.72 10.10Q36.92 10.10 36.45 10.22L36.45 10.22L36.45 10.22Q35.97 10.33 35.72 10.52L35.72 10.52L35.72 10.52Q35.47 10.71 35.39 10.95L35.39 10.95L35.39 10.95Q35.31 11.20 35.31 11.46L35.31 11.46L35.31 11.46Q35.31 11.75 35.40 11.98L35.40 11.98L35.40 11.98Q35.48 12.20 35.63 12.36L35.63 12.36L35.63 12.36Q35.77 12.52 35.98 12.61L35.98 12.61L35.98 12.61Q36.18 12.69 36.42 12.69L36.42 12.69L36.42 12.69Q36.61 12.69 36.80 12.64L36.80 12.64L36.80 12.64Q37.00 12.60 37.22 12.49L37.22 12.49L37.22 12.49Q37.44 12.37 37.69 12.18L37.69 12.18L37.69 12.18Q37.94 11.99 38.24 11.69L38.24 11.69ZM47.90 12.29L47.90 13.03L47.90 13.03Q47.64 13.21 47.30 13.35L47.30 13.35L47.30 13.35Q46.96 13.49 46.60 13.59L46.60 13.59L46.60 13.59Q46.24 13.69 45.87 13.73L45.87 13.73L45.87 13.73Q45.51 13.78 45.19 13.78L45.19 13.78L45.19 13.78Q44.50 13.78 43.87 13.55L43.87 13.55L43.87 13.55Q43.24 13.32 42.77 12.87L42.77 12.87L42.77 12.87Q42.29 12.41 42.01 11.75L42.01 11.75L42.01 11.75Q41.73 11.08 41.73 10.21L41.73 10.21L41.73 10.21Q41.73 9.32 42.03 8.59L42.03 8.59L42.03 8.59Q42.33 7.85 42.83 7.34L42.83 7.34L42.83 7.34Q43.33 6.82 43.98 6.54L43.98 6.54L43.98 6.54Q44.63 6.26 45.35 6.26L45.35 6.26L45.35 6.26Q45.93 6.26 46.43 6.46L46.43 6.46L46.43 6.46Q46.94 6.65 47.31 7.04L47.31 7.04L47.31 7.04Q47.68 7.43 47.89 8.02L47.89 8.02L47.89 8.02Q48.10 8.60 48.10 9.38L48.10 9.38L48.10 9.38Q48.10 9.54 48.09 9.75L48.09 9.75L48.09 9.75Q48.08 9.97 48.04 10.21L48.04 10.21L43.09 10.21L43.09 10.21Q43.09 10.80 43.30 11.26L43.30 11.26L43.30 11.26Q43.50 11.72 43.88 12.04L43.88 12.04L43.88 12.04Q44.26 12.36 44.79 12.52L44.79 12.52L44.79 12.52Q45.32 12.69 45.95 12.69L45.95 12.69L45.95 12.69Q46.11 12.69 46.33 12.67L46.33 12.67L46.33 12.67Q46.56 12.66 46.82 12.62L46.82 12.62L46.82 12.62Q47.08 12.58 47.36 12.50L47.36 12.50L47.36 12.50Q47.64 12.42 47.90 12.29L47.90 12.29ZM43.09 9.41L46.87 9.41L46.87 9.41Q46.87 8.89 46.73 8.50L46.73 8.50L46.73 8.50Q46.59 8.11 46.34 7.84L46.34 7.84L46.34 7.84Q46.09 7.57 45.77 7.44L45.77 7.44L45.77 7.44Q45.45 7.30 45.08 7.30L45.08 7.30L45.08 7.30Q44.67 7.30 44.30 7.47L44.30 7.47L44.30 7.47Q43.94 7.64 43.67 7.92L43.67 7.92L43.67 7.92Q43.40 8.21 43.24 8.59L43.24 8.59L43.24 8.59Q43.09 8.98 43.09 9.41L43.09 9.41ZM50.13 13.64L50.13 2.69L51.43 2.69L51.43 13.64L50.13 13.64ZM59.87 12.72L59.87 12.72L59.87 12.72Q60.32 12.72 60.70 12.60L60.70 12.60L60.70 12.60Q61.09 12.48 61.36 12.26L61.36 12.26L61.36 12.26Q61.63 12.04 61.79 11.73L61.79 11.73L61.79 11.73Q61.94 11.42 61.94 11.05L61.94 11.05L61.94 11.05Q61.94 10.60 61.73 10.29L61.73 10.29L61.73 10.29Q61.52 9.99 61.19 9.75L61.19 9.75L61.19 9.75Q60.85 9.52 60.41 9.34L60.41 9.34L60.41 9.34Q59.97 9.16 59.52 8.97L59.52 8.97L59.52 8.97Q59.07 8.78 58.63 8.57L58.63 8.57L58.63 8.57Q58.19 8.35 57.86 8.03L57.86 8.03L57.86 8.03Q57.52 7.72 57.31 7.29L57.31 7.29L57.31 7.29Q57.10 6.86 57.10 6.25L57.10 6.25L57.10 6.25Q57.10 5.61 57.35 5.10L57.35 5.10L57.35 5.10Q57.59 4.59 58.03 4.23L58.03 4.23L58.03 4.23Q58.47 3.87 59.08 3.68L59.08 3.68L59.08 3.68Q59.68 3.49 60.41 3.49L60.41 3.49L60.41 3.49Q60.85 3.49 61.52 3.58L61.52 3.58L61.52 3.58Q62.19 3.66 62.95 3.89L62.95 3.89L62.72 5.08L62.58 5.15L62.58 5.15Q62.21 4.98 61.85 4.86L61.85 4.86L61.85 4.86Q61.50 4.74 61.18 4.68L61.18 4.68L61.18 4.68Q60.87 4.61 60.60 4.58L60.60 4.58L60.60 4.58Q60.33 4.55 60.14 4.55L60.14 4.55L60.14 4.55Q59.73 4.55 59.41 4.65L59.41 4.65L59.41 4.65Q59.08 4.75 58.85 4.94L58.85 4.94L58.85 4.94Q58.63 5.13 58.50 5.40L58.50 5.40L58.50 5.40Q58.37 5.67 58.37 6.01L58.37 6.01L58.37 6.01Q58.37 6.47 58.58 6.79L58.58 6.79L58.58 6.79Q58.79 7.11 59.13 7.36L59.13 7.36L59.13 7.36Q59.48 7.60 59.92 7.79L59.92 7.79L59.92 7.79Q60.35 7.98 60.81 8.18L60.81 8.18L60.81 8.18Q61.26 8.37 61.70 8.59L61.70 8.59L61.70 8.59Q62.14 8.80 62.48 9.10L62.48 9.10L62.48 9.10Q62.83 9.39 63.04 9.78L63.04 9.78L63.04 9.78Q63.25 10.18 63.25 10.73L63.25 10.73L63.25 10.73Q63.25 11.34 62.98 11.89L62.98 11.89L62.98 11.89Q62.72 12.44 62.24 12.86L62.24 12.86L62.24 12.86Q61.77 13.28 61.10 13.53L61.10 13.53L61.10 13.53Q60.44 13.78 59.63 13.78L59.63 13.78L59.63 13.78Q59.29 13.78 58.92 13.73L58.92 13.73L58.92 13.73Q58.54 13.69 58.17 13.60L58.17 13.60L58.17 13.60Q57.79 13.51 57.43 13.39L57.43 13.39L57.43 13.39Q57.06 13.27 56.73 13.12L56.73 13.12L56.96 11.92L57.10 11.85L57.10 11.85Q57.80 12.26 58.51 12.49L58.51 12.49L58.51 12.49Q59.23 12.72 59.87 12.72ZM65.45 13.64L65.45 6.40L66.75 6.40L66.75 13.64L65.45 13.64ZM66.11 4.83L66.11 4.83L66.11 4.83Q65.94 4.83 65.79 4.76L65.79 4.76L65.79 4.76Q65.64 4.70 65.53 4.59L65.53 4.59L65.53 4.59Q65.42 4.48 65.36 4.34L65.36 4.34L65.36 4.34Q65.30 4.19 65.30 4.01L65.30 4.01L65.30 4.01Q65.30 3.83 65.37 3.68L65.37 3.68L65.37 3.68Q65.43 3.52 65.55 3.40L65.55 3.40L65.55 3.40Q65.66 3.29 65.81 3.22L65.81 3.22L65.81 3.22Q65.97 3.16 66.14 3.16L66.14 3.16L66.14 3.16Q66.30 3.16 66.45 3.22L66.45 3.22L66.45 3.22Q66.60 3.29 66.71 3.40L66.71 3.40L66.71 3.40Q66.81 3.52 66.88 3.67L66.88 3.67L66.88 3.67Q66.94 3.83 66.94 4.00L66.94 4.00L66.94 4.00Q66.94 4.18 66.87 4.34L66.87 4.34L66.87 4.34Q66.80 4.49 66.69 4.60L66.69 4.60L66.69 4.60Q66.58 4.70 66.42 4.76L66.42 4.76L66.42 4.76Q66.27 4.83 66.11 4.83ZM69.18 13.64L69.18 6.40L70.19 6.40L70.40 7.66L70.40 7.66Q70.64 7.43 70.94 7.18L70.94 7.18L70.94 7.18Q71.25 6.94 71.61 6.73L71.61 6.73L71.61 6.73Q71.97 6.53 72.37 6.40L72.37 6.40L72.37 6.40Q72.78 6.26 73.20 6.26L73.20 6.26L73.20 6.26Q73.70 6.26 74.10 6.45L74.10 6.45L74.10 6.45Q74.50 6.64 74.78 6.99L74.78 6.99L74.78 6.99Q75.07 7.33 75.22 7.81L75.22 7.81L75.22 7.81Q75.37 8.29 75.37 8.85L75.37 8.85L75.37 13.64L74.07 13.64L74.07 8.97L74.07 8.97Q74.07 8.57 73.96 8.27L73.96 8.27L73.96 8.27Q73.85 7.96 73.65 7.76L73.65 7.76L73.65 7.76Q73.45 7.56 73.18 7.46L73.18 7.46L73.18 7.46Q72.91 7.36 72.58 7.36L72.58 7.36L72.58 7.36Q72.02 7.36 71.51 7.66L71.51 7.66L71.51 7.66Q71.00 7.96 70.48 8.45L70.48 8.45L70.48 13.64L69.18 13.64ZM81.37 14.05L79.68 14.05L79.68 14.05Q79.50 14.14 79.30 14.27L79.30 14.27L79.30 14.27Q79.10 14.40 78.93 14.56L78.93 14.56L78.93 14.56Q78.76 14.72 78.64 14.92L78.64 14.92L78.64 14.92Q78.52 15.11 78.52 15.33L78.52 15.33L78.52 15.33Q78.52 15.54 78.66 15.74L78.66 15.74L78.66 15.74Q78.79 15.93 79.05 16.08L79.05 16.08L79.05 16.08Q79.30 16.22 79.68 16.31L79.68 16.31L79.68 16.31Q80.06 16.39 80.54 16.39L80.54 16.39L80.54 16.39Q81.09 16.39 81.53 16.28L81.53 16.28L81.53 16.28Q81.97 16.17 82.27 15.98L82.27 15.98L82.27 15.98Q82.57 15.79 82.73 15.54L82.73 15.54L82.73 15.54Q82.89 15.29 82.89 15.01L82.89 15.01L82.89 15.01Q82.89 14.76 82.76 14.58L82.76 14.58L82.76 14.58Q82.64 14.40 82.43 14.28L82.43 14.28L82.43 14.28Q82.22 14.16 81.95 14.11L81.95 14.11L81.95 14.11Q81.67 14.05 81.37 14.05L81.37 14.05ZM78.74 13.92L78.74 13.92L78.74 13.92Q78.53 13.85 78.35 13.75L78.35 13.75L78.35 13.75Q78.16 13.64 78.03 13.52L78.03 13.52L78.03 13.52Q77.89 13.39 77.81 13.23L77.81 13.23L77.81 13.23Q77.73 13.07 77.73 12.89L77.73 12.89L77.73 12.89Q77.73 12.66 77.84 12.46L77.84 12.46L77.84 12.46Q77.96 12.26 78.14 12.07L78.14 12.07L78.14 12.07Q78.32 11.88 78.55 11.71L78.55 11.71L78.55 11.71Q78.78 11.55 79.02 11.39L79.02 11.39L79.02 11.39Q78.26 11.02 77.91 10.42L77.91 10.42L77.91 10.42Q77.55 9.82 77.55 9.11L77.55 9.11L77.55 9.11Q77.55 8.67 77.68 8.29L77.68 8.29L77.68 8.29Q77.81 7.91 78.03 7.59L78.03 7.59L78.03 7.59Q78.26 7.27 78.56 7.03L78.56 7.03L78.56 7.03Q78.86 6.78 79.21 6.61L79.21 6.61L79.21 6.61Q79.56 6.44 79.94 6.35L79.94 6.35L79.94 6.35Q80.32 6.26 80.69 6.26L80.69 6.26L80.69 6.26Q81.14 6.26 81.57 6.38L81.57 6.38L81.57 6.38Q81.99 6.49 82.28 6.68L82.28 6.68L82.28 6.68Q82.39 6.62 82.55 6.56L82.55 6.56L82.55 6.56Q82.71 6.51 82.89 6.47L82.89 6.47L82.89 6.47Q83.06 6.44 83.24 6.42L83.24 6.42L83.24 6.42Q83.43 6.40 83.58 6.40L83.58 6.40L84.81 6.40L84.54 7.42L82.93 7.42L82.93 7.42Q82.97 7.45 83.07 7.58L83.07 7.58L83.07 7.58Q83.16 7.70 83.25 7.91L83.25 7.91L83.25 7.91Q83.34 8.11 83.42 8.37L83.42 8.37L83.42 8.37Q83.49 8.64 83.49 8.94L83.49 8.94L83.49 8.94Q83.49 9.50 83.22 9.98L83.22 9.98L83.22 9.98Q82.96 10.47 82.53 10.83L82.53 10.83L82.53 10.83Q82.11 11.20 81.56 11.41L81.56 11.41L81.56 11.41Q81.01 11.62 80.43 11.62L80.43 11.62L80.43 11.62Q80.28 11.62 80.13 11.61L80.13 11.61L80.13 11.61Q79.98 11.59 79.81 11.57L79.81 11.57L79.81 11.57Q79.69 11.65 79.55 11.74L79.55 11.74L79.55 11.74Q79.41 11.84 79.29 11.95L79.29 11.95L79.29 11.95Q79.18 12.07 79.11 12.19L79.11 12.19L79.11 12.19Q79.03 12.32 79.03 12.46L79.03 12.46L79.03 12.46Q79.03 12.67 79.23 12.81L79.23 12.81L79.23 12.81Q79.43 12.95 79.78 12.95L79.78 12.95L81.72 12.95L81.72 12.95Q82.21 12.95 82.65 13.07L82.65 13.07L82.65 13.07Q83.08 13.20 83.41 13.44L83.41 13.44L83.41 13.44Q83.73 13.67 83.92 14L83.92 14L83.92 14Q84.12 14.33 84.12 14.72L84.12 14.72L84.12 14.72Q84.12 15.19 83.85 15.67L83.85 15.67L83.85 15.67Q83.58 16.15 83.08 16.55L83.08 16.55L83.08 16.55Q82.57 16.95 81.84 17.20L81.84 17.20L81.84 17.20Q81.10 17.45 80.16 17.45L80.16 17.45L80.16 17.45Q79.54 17.45 79.00 17.33L79.00 17.33L79.00 17.33Q78.46 17.21 78.07 17.00L78.07 17.00L78.07 17.00Q77.68 16.79 77.45 16.49L77.45 16.49L77.45 16.49Q77.23 16.19 77.23 15.82L77.23 15.82L77.23 15.82Q77.23 15.59 77.31 15.38L77.31 15.38L77.31 15.38Q77.40 15.17 77.53 14.98L77.53 14.98L77.53 14.98Q77.66 14.80 77.83 14.64L77.83 14.64L77.83 14.64Q78.00 14.47 78.17 14.34L78.17 14.34L78.17 14.34Q78.33 14.21 78.49 14.10L78.49 14.10L78.49 14.10Q78.64 13.99 78.74 13.92ZM78.78 8.90L78.78 8.90L78.78 8.90Q78.78 9.27 78.91 9.59L78.91 9.59L78.91 9.59Q79.04 9.91 79.27 10.15L79.27 10.15L79.27 10.15Q79.50 10.38 79.82 10.52L79.82 10.52L79.82 10.52Q80.14 10.65 80.53 10.65L80.53 10.65L80.53 10.65Q80.89 10.65 81.20 10.53L81.20 10.53L81.20 10.53Q81.52 10.40 81.75 10.19L81.75 10.19L81.75 10.19Q81.99 9.97 82.12 9.66L82.12 9.66L82.12 9.66Q82.26 9.34 82.26 8.96L82.26 8.96L82.26 8.96Q82.26 8.59 82.13 8.27L82.13 8.27L82.13 8.27Q82.00 7.96 81.76 7.73L81.76 7.73L81.76 7.73Q81.53 7.50 81.21 7.37L81.21 7.37L81.21 7.37Q80.89 7.23 80.51 7.23L80.51 7.23L80.51 7.23Q80.14 7.23 79.83 7.35L79.83 7.35L79.83 7.35Q79.52 7.47 79.29 7.69L79.29 7.69L79.29 7.69Q79.05 7.90 78.92 8.21L78.92 8.21L78.92 8.21Q78.78 8.52 78.78 8.90ZM86.22 13.64L86.22 2.69L87.52 2.69L87.52 7.57L87.52 7.57Q87.77 7.36 88.07 7.12L88.07 7.12L88.07 7.12Q88.37 6.89 88.72 6.70L88.72 6.70L88.72 6.70Q89.07 6.51 89.45 6.38L89.45 6.38L89.45 6.38Q89.83 6.26 90.24 6.26L90.24 6.26L90.24 6.26Q90.73 6.26 91.13 6.45L91.13 6.45L91.13 6.45Q91.53 6.64 91.82 6.98L91.82 6.98L91.82 6.98Q92.11 7.31 92.26 7.79L92.26 7.79L92.26 7.79Q92.42 8.26 92.42 8.85L92.42 8.85L92.42 13.64L91.12 13.64L91.12 8.96L91.12 8.96Q91.12 8.56 91.00 8.26L91.00 8.26L91.00 8.26Q90.89 7.96 90.70 7.76L90.70 7.76L90.70 7.76Q90.50 7.55 90.23 7.45L90.23 7.45L90.23 7.45Q89.95 7.36 89.64 7.36L89.64 7.36L89.64 7.36Q89.07 7.36 88.55 7.66L88.55 7.66L88.55 7.66Q88.04 7.96 87.52 8.45L87.52 8.45L87.52 13.64L86.22 13.64Z"></path></g><!----><!----></svg>